<?xml version="1.0" standalone="no"?>
<!DOCTYPE svg PUBLIC "-//W3C//DTD SVG 20010904//EN"
 "http://www.w3.org/TR/2001/REC-SVG-20010904/DTD/svg10.dtd">
<svg version="1.0" xmlns="http://www.w3.org/2000/svg"
 width="200.000000pt" height="200.000000pt" viewBox="0 0 200.000000 200.000000"
 preserveAspectRatio="xMidYMid meet">
<metadata>
Created by potrace 1.14, written by Peter Selinger 2001-2017
</metadata>
<g transform="translate(0.000000,200.000000) scale(0.100000,-0.100000)"
fill="#000000" stroke="none">
<path d="M783 1609 c-388 -65 -635 -473 -511 -844 68 -205 221 -355 433 -426
65 -22 85 -24 290 -24 216 0 222 1 309 29 266 87 456 334 460 598 1 112 -7
161 -43 255 -73 187 -204 313 -404 386 -80 29 -88 30 -282 32 -110 2 -223 -1
-252 -6z m428 -214 c155 -52 264 -167 304 -320 39 -153 -6 -316 -119 -427 -41
-41 -123 -98 -140 -98 -1 0 -2 109 -1 243 1 133 -3 255 -8 270 -24 72 -140 81
-176 14 -8 -15 -12 -110 -14 -292 l-2 -270 -80 1 c-142 1 -195 14 -276 66
-127 82 -200 199 -215 346 -17 163 85 356 227 428 l46 23 1 -272 c0 -150 1
-283 1 -295 1 -13 16 -39 34 -56 27 -28 38 -32 69 -28 39 4 87 43 89 71 1 9 2
151 4 316 1 165 3 300 4 301 0 0 46 -1 102 -2 59 -2 122 -10 150 -19z"/>
</g>
</svg>
